<svg width="25" height="27" viewBox="0 0 25 27" fill="none" xmlns="http://www.w3.org/2000/svg">
<g filter="url(#filter0_d_336_3506)">
<path d="M12.4979 7.66546C10.9371 7.66546 9.66333 8.9392 9.66333 10.5C9.66333 12.0608 10.9371 13.3345 12.4979 13.3345C14.0587 13.3345 15.3324 12.0608 15.3324 10.5C15.3324 8.9392 14.0587 7.66546 12.4979 7.66546ZM20.9994 10.5C20.9994 9.32621 21.01 8.16305 20.9441 6.99138C20.8782 5.63046 20.5677 4.42264 19.5725 3.42747C18.5752 2.43017 17.3695 2.12184 16.0086 2.05592C14.8348 1.99 13.6717 2.00063 12.5 2.00063C11.3262 2.00063 10.163 1.99 8.99138 2.05592C7.63046 2.12184 6.42264 2.4323 5.42747 3.42747C4.43017 4.42477 4.12184 5.63046 4.05592 6.99138C3.99 8.16517 4.00063 9.32833 4.00063 10.5C4.00063 11.6717 3.99 12.837 4.05592 14.0086C4.12184 15.3695 4.4323 16.5774 5.42747 17.5725C6.42477 18.5698 7.63046 18.8782 8.99138 18.9441C10.1652 19.01 11.3283 18.9994 12.5 18.9994C13.6738 18.9994 14.837 19.01 16.0086 18.9441C17.3695 18.8782 18.5774 18.5677 19.5725 17.5725C20.5698 16.5752 20.8782 15.3695 20.9441 14.0086C21.0121 12.837 20.9994 11.6738 20.9994 10.5ZM12.4979 14.8613C10.0844 14.8613 8.13655 12.9135 8.13655 10.5C8.13655 8.08649 10.0844 6.13868 12.4979 6.13868C14.9114 6.13868 16.8592 8.08649 16.8592 10.5C16.8592 12.9135 14.9114 14.8613 12.4979 14.8613ZM17.0378 6.97862C16.4743 6.97862 16.0193 6.52356 16.0193 5.96006C16.0193 5.39655 16.4743 4.94149 17.0378 4.94149C17.6013 4.94149 18.0564 5.39655 18.0564 5.96006C18.0565 6.09386 18.0303 6.22639 17.9792 6.35004C17.9281 6.4737 17.853 6.58605 17.7584 6.68067C17.6638 6.77528 17.5515 6.8503 17.4278 6.90143C17.3041 6.95256 17.1716 6.97879 17.0378 6.97862Z" fill="#112211"/>
</g>
<defs>
<filter id="filter0_d_336_3506" x="-1" y="0.147217" width="28" height="28" filterUnits="userSpaceOnUse" color-interpolation-filters="sRGB">
<feFlood flood-opacity="0" result="BackgroundImageFix"/>
<feColorMatrix in="SourceAlpha" type="matrix" values="0 0 0 0 0 0 0 0 0 0 0 0 0 0 0 0 0 0 127 0" result="hardAlpha"/>
<feOffset dy="4"/>
<feGaussianBlur stdDeviation="2"/>
<feComposite in2="hardAlpha" operator="out"/>
<feColorMatrix type="matrix" values="0 0 0 0 0 0 0 0 0 0 0 0 0 0 0 0 0 0 0.25 0"/>
<feBlend mode="normal" in2="BackgroundImageFix" result="effect1_dropShadow_336_3506"/>
<feBlend mode="normal" in="SourceGraphic" in2="effect1_dropShadow_336_3506" result="shape"/>
</filter>
</defs>
</svg>
