<svg width="408" height="313" viewBox="0 0 408 313" fill="none" xmlns="http://www.w3.org/2000/svg">
<g clip-path="url(#clip0_141_3771)" filter="url(#filter0_d_141_3771)">
<path d="M161.25 376.762H243.463C244.138 376.762 244.707 374.956 244.707 372.856V121.256C244.707 119.144 244.138 117.35 243.463 117.35H161.25C160.875 117.35 160.6 117.756 160.394 118.4L160.381 118.531C160.381 118.531 160.356 118.544 160.344 118.662C160.094 119.508 159.982 120.388 160.013 121.269V372.869C160.013 374.956 160.569 376.762 161.25 376.762Z" fill="#DFAD92"/>
<path d="M198.438 376.762H243.994C244.381 376.762 244.688 374.956 244.688 372.856V121.256C244.688 119.144 244.375 117.35 243.994 117.35H198.444C198.238 117.35 198.081 117.756 197.981 118.4L197.969 118.531C197.969 118.531 197.956 118.544 197.944 118.662C197.803 119.524 197.742 120.396 197.763 121.269V372.869C197.763 374.956 198.063 376.762 198.438 376.762Z" fill="#A4806D"/>
<path d="M161.25 268.231H243.438C244.125 268.231 244.694 267.844 244.694 267.388V212.438C244.694 211.975 244.125 211.575 243.438 211.575H161.238C160.943 211.567 160.654 211.647 160.406 211.806L160.369 211.831L160.319 211.869C160.223 211.928 160.143 212.011 160.088 212.109C160.032 212.208 160.002 212.318 160 212.431V267.381C160 267.85 160.544 268.231 161.238 268.231" fill="#A4806D"/>
<path d="M137.688 47H67.0188C32.225 47 4 85.575 4 133.144V238.156H74.6688V133.144C74.6688 85.575 102.875 47 137.688 47Z" fill="#7C9C9F"/>
<path d="M302.269 47H137.687C102.875 47 74.6875 85.575 74.6875 133.144V238.156H365.294V133.144C365.294 85.575 337.081 47 302.294 47" fill="#112211"/>
<path d="M149.312 47H67.0312C32.2313 47 4.03125 85.575 4.03125 133.144V238.156H212.356V133.144C212.356 85.575 184.144 47 149.356 47" fill="#65B599"/>
<path d="M403.394 154.987C403.419 155.025 403.569 155.037 403.569 155.075V230.469C403.578 230.736 403.518 231.001 403.394 231.237C403.394 231.237 403.369 231.237 403.369 231.25H403.344C403.262 231.406 403.112 231.544 402.937 231.544H362.119C361.756 231.544 361.475 231.031 361.475 230.4V189.356H237.5C236.144 189.356 234.969 189.112 234.969 188.844V155.006C234.969 154.712 236.144 154.481 237.5 154.481H402.937C403.125 154.481 403.294 154.669 403.394 154.925" fill="#FF8682"/>
<path d="M144.426 59H70.5675C39.3409 59 14 95.1164 14 139.668V238H201V139.668C201 95.1164 175.683 59 144.426 59Z" fill="#546869"/>
</g>
<defs>
<filter id="filter0_d_141_3771" x="0" y="0" width="408" height="313" filterUnits="userSpaceOnUse" color-interpolation-filters="sRGB">
<feFlood flood-opacity="0" result="BackgroundImageFix"/>
<feColorMatrix in="SourceAlpha" type="matrix" values="0 0 0 0 0 0 0 0 0 0 0 0 0 0 0 0 0 0 127 0" result="hardAlpha"/>
<feOffset dy="4"/>
<feGaussianBlur stdDeviation="2"/>
<feComposite in2="hardAlpha" operator="out"/>
<feColorMatrix type="matrix" values="0 0 0 0 0 0 0 0 0 0 0 0 0 0 0 0 0 0 0.25 0"/>
<feBlend mode="normal" in2="BackgroundImageFix" result="effect1_dropShadow_141_3771"/>
<feBlend mode="normal" in="SourceGraphic" in2="effect1_dropShadow_141_3771" result="shape"/>
</filter>
<clipPath id="clip0_141_3771">
<rect width="400" height="305" fill="white" transform="translate(4)"/>
</clipPath>
</defs>
</svg>
